<?xml version="1.0" encoding="utf-8"?>
<!-- Generator: Adobe Illustrator 18.0.0, SVG Export Plug-In . SVG Version: 6.00 Build 0)  -->
<!DOCTYPE svg PUBLIC "-//W3C//DTD SVG 1.1//EN" "http://www.w3.org/Graphics/SVG/1.1/DTD/svg11.dtd">
<svg version="1.1" id="Capa_1" xmlns="http://www.w3.org/2000/svg" xmlns:xlink="http://www.w3.org/1999/xlink" x="0px" y="0px"
	 viewBox="198 -58.7 468 766" enable-background="new 198 -58.7 468 766" xml:space="preserve">
<g>
	<g>
		<path fill="#000222" d="M239.2,158.6c1.4,3.4,4.8,5.7,8.5,5.7h100.7V658c0,5.1,4.1,9.2,9.2,9.2h147c5.1,0,9.2-4.1,9.2-9.2V164.3
			h101.1c3.7,0,7.1-2.2,8.5-5.7c1.4-3.4,0.6-7.4-2-10L438.1-35.3c-1.7-1.7-4.1-2.7-6.5-2.7c-2.4,0-4.8,1-6.5,2.7L241.2,148.6
			C238.6,151.2,237.8,155.2,239.2,158.6z"/>
	</g>
</g>
</svg>
