<?xml version="1.0" encoding="utf-8"?>
<!-- Generator: Adobe Illustrator 18.0.0, SVG Export Plug-In . SVG Version: 6.00 Build 0)  -->
<!DOCTYPE svg PUBLIC "-//W3C//DTD SVG 1.1//EN" "http://www.w3.org/Graphics/SVG/1.1/DTD/svg11.dtd">
<svg version="1.1" id="Capa_1" xmlns="http://www.w3.org/2000/svg" xmlns:xlink="http://www.w3.org/1999/xlink" x="0px" y="0px"
	 viewBox="0 0 841.9 595.3" enable-background="new 0 0 841.9 595.3" xml:space="preserve">
<g>
	<g>
		<path fill="#000222" d="M275.3,457.7c3.4-1.4,5.7-4.8,5.7-8.5V348.5h493.7c5.1,0,9.2-4.1,9.2-9.2v-147c0-5.1-4.1-9.2-9.2-9.2H281
			V82c0-3.7-2.2-7.1-5.7-8.5c-3.4-1.4-7.4-0.6-10,2L81.4,258.8c-1.7,1.7-2.7,4.1-2.7,6.5c0,2.4,1,4.8,2.7,6.5l183.9,183.9
			C267.9,458.3,271.9,459.1,275.3,457.7z"/>
	</g>
</g>
</svg>
