<?xml version="1.0" encoding="utf-8"?>
<!-- Generator: Adobe Illustrator 18.0.0, SVG Export Plug-In . SVG Version: 6.00 Build 0)  -->
<!DOCTYPE svg PUBLIC "-//W3C//DTD SVG 1.1//EN" "http://www.w3.org/Graphics/SVG/1.1/DTD/svg11.dtd">
<svg version="1.1" id="Capa_1" xmlns="http://www.w3.org/2000/svg" xmlns:xlink="http://www.w3.org/1999/xlink" x="0px" y="0px"
	 viewBox="0 0 841.9 595.3" enable-background="new 0 0 841.9 595.3" xml:space="preserve">
<g>
	<g>
		<path fill="#000222" d="M564,402.9c-1-2.4-3.4-4.1-6.1-4.1h-71.9V46.6c0-3.6-2.9-6.6-6.6-6.6H374.6c-3.6,0-6.6,2.9-6.6,6.6v352.3
			h-72.1c-2.6,0-5.1,1.6-6.1,4.1c-1,2.4-0.4,5.3,1.4,7.1l130.8,131.2c1.2,1.2,2.9,1.9,4.6,1.9c1.7,0,3.4-0.7,4.6-1.9L562.6,410
			C564.4,408.2,565,405.3,564,402.9z"/>
	</g>
</g>
</svg>
